<svg width="168" height="251" viewBox="0 0 168 251" fill="none" xmlns="http://www.w3.org/2000/svg">
<path d="M34.706 202.001C35.4153 202.102 35.8967 202.317 36.15 202.647C36.4287 202.976 36.568 203.407 36.568 203.939C36.568 205.687 35.6307 206.497 33.756 206.371L32.426 206.257C30.9313 206.13 29.4367 206.029 27.942 205.953C26.4727 205.877 24.9273 205.839 23.306 205.839H21.596C21.292 209.588 20.9753 213.008 20.646 216.099L27.182 215.985C28.1193 215.985 28.74 216.149 29.044 216.479C29.3733 216.808 29.538 217.251 29.538 217.809C29.538 218.67 29.2847 219.354 28.778 219.861C28.2713 220.342 27.5493 220.583 26.612 220.583H20.114L19.886 222.217C19.354 226.397 18.214 229.373 16.466 231.147C14.7433 232.92 12.362 233.807 9.322 233.807C7.59933 233.807 6.016 233.439 4.572 232.705C3.128 231.945 2.064 231.033 1.38 229.969C1.10133 229.538 0.962 229.019 0.962 228.411C0.962 227.803 1.10133 227.271 1.38 226.815C1.684 226.359 2.05133 226.131 2.482 226.131C2.786 226.131 3.07733 226.232 3.356 226.435C3.66 226.637 4.04 227.03 4.496 227.613C5.712 229.209 7.21933 230.007 9.018 230.007C10.462 230.007 11.6653 229.424 12.628 228.259C13.616 227.068 14.2493 225.206 14.528 222.673L14.756 220.583H12.932C12.3493 220.583 11.8427 220.418 11.412 220.089C11.0067 219.759 10.804 219.291 10.804 218.683C10.804 217.897 11.0067 217.302 11.412 216.897C11.8173 216.466 12.4127 216.251 13.198 216.251C13.9073 216.251 14.604 216.238 15.288 216.213C15.592 213.426 15.9213 210.044 16.276 206.067C13.54 206.32 11.6147 206.763 10.5 207.397C9.38533 208.03 8.828 208.967 8.828 210.209C8.828 211.07 9.08133 211.893 9.588 212.679C9.74 212.907 9.816 213.135 9.816 213.363C9.816 213.819 9.56267 214.224 9.056 214.579C8.54933 214.908 7.97933 215.073 7.346 215.073C6.662 215.073 6.07933 214.87 5.598 214.465C5.294 214.211 5.00267 213.692 4.724 212.907C4.44533 212.121 4.306 211.247 4.306 210.285C4.306 207.143 5.91467 204.863 9.132 203.445C12.3747 202.026 17.0993 201.317 23.306 201.317C27.6127 201.317 31.4127 201.545 34.706 202.001ZM33.2148 233.693C31.6441 233.693 30.3901 233.123 29.4528 231.983C28.5155 230.843 28.0468 229.348 28.0468 227.499C28.0468 225.472 28.5155 223.559 29.4528 221.761C30.3901 219.937 31.6315 218.48 33.1768 217.391C34.7475 216.276 36.4068 215.719 38.1548 215.719C38.7121 215.719 39.0795 215.833 39.2568 216.061C39.4595 216.263 39.6241 216.643 39.7508 217.201C40.2828 217.099 40.8401 217.049 41.4228 217.049C42.6641 217.049 43.2848 217.492 43.2848 218.379C43.2848 218.911 43.0948 220.177 42.7148 222.179C42.1321 225.092 41.8408 227.119 41.8408 228.259C41.8408 228.639 41.9295 228.943 42.1068 229.171C42.3095 229.399 42.5628 229.513 42.8668 229.513C43.3481 229.513 43.9308 229.209 44.6148 228.601C45.2988 227.967 46.2235 226.954 47.3888 225.561C47.6928 225.206 48.0348 225.029 48.4148 225.029C48.7441 225.029 48.9975 225.181 49.1748 225.485C49.3775 225.789 49.4788 226.207 49.4788 226.739C49.4788 227.752 49.2381 228.537 48.7568 229.095C47.7181 230.387 46.6161 231.476 45.4508 232.363C44.2855 233.249 43.1581 233.693 42.0688 233.693C41.2328 233.693 40.4601 233.414 39.7508 232.857C39.0668 232.274 38.5475 231.489 38.1928 230.501C36.8755 232.629 35.2161 233.693 33.2148 233.693ZM34.5828 229.855C35.1401 229.855 35.6721 229.525 36.1788 228.867C36.6855 228.208 37.0528 227.334 37.2808 226.245L38.6868 219.253C37.6228 219.278 36.6348 219.683 35.7228 220.469C34.8361 221.229 34.1268 222.242 33.5948 223.509C33.0628 224.775 32.7968 226.118 32.7968 227.537C32.7968 228.322 32.9488 228.905 33.2528 229.285C33.5821 229.665 34.0255 229.855 34.5828 229.855ZM52.6604 219.405C52.6097 220.671 52.5844 221.659 52.5844 222.369C52.5844 224.193 52.6731 225.624 52.8504 226.663C53.0531 227.676 53.3697 228.411 53.8004 228.867C54.2564 229.297 54.8771 229.513 55.6624 229.513C56.0677 229.513 56.5491 229.386 57.1064 229.133C57.6637 228.879 58.1704 228.55 58.6264 228.145C58.9051 227.891 59.1837 227.765 59.4624 227.765C59.7664 227.765 60.0071 227.942 60.1844 228.297C60.3871 228.626 60.4884 229.031 60.4884 229.513C60.4884 229.994 60.3871 230.463 60.1844 230.919C60.0071 231.375 59.7284 231.755 59.3484 232.059C58.0311 233.148 56.5364 233.693 54.8644 233.693C52.4577 233.693 50.6971 232.692 49.5824 230.691C48.4677 228.664 47.9104 226.029 47.9104 222.787C47.9104 221.672 47.9484 220.545 48.0244 219.405H46.5424C45.7824 219.405 45.2631 219.265 44.9844 218.987C44.7311 218.708 44.6044 218.265 44.6044 217.657C44.6044 216.238 45.1744 215.529 46.3144 215.529H48.4804C48.9111 212.742 49.5697 210.196 50.4564 207.891C51.3431 205.585 52.4071 203.749 53.6484 202.381C54.9151 201.013 56.2704 200.329 57.7144 200.329C58.7784 200.329 59.6144 200.797 60.2224 201.735C60.8304 202.672 61.1344 203.85 61.1344 205.269C61.1344 209.195 59.4877 212.615 56.1944 215.529H60.4504C60.8557 215.529 61.1471 215.617 61.3244 215.795C61.5017 215.972 61.5904 216.301 61.5904 216.783C61.5904 218.531 60.1591 219.405 57.2964 219.405H52.6604ZM56.6884 203.977C56.3084 203.977 55.8777 204.458 55.3964 205.421C54.9404 206.358 54.4971 207.675 54.0664 209.373C53.6611 211.045 53.3191 212.907 53.0404 214.959C54.5351 213.667 55.6497 212.223 56.3844 210.627C57.1444 209.005 57.5244 207.536 57.5244 206.219C57.5244 204.724 57.2457 203.977 56.6884 203.977ZM134.27 202.001C134.98 202.102 135.461 202.317 135.714 202.647C135.993 202.976 136.132 203.407 136.132 203.939C136.132 205.687 135.195 206.497 133.32 206.371L131.99 206.257C130.496 206.13 129.001 206.029 127.506 205.953C126.037 205.877 124.492 205.839 122.87 205.839H121.16C120.856 209.588 120.54 213.008 120.21 216.099L126.746 215.985C127.684 215.985 128.304 216.149 128.608 216.479C128.938 216.808 129.102 217.251 129.102 217.809C129.102 218.67 128.849 219.354 128.342 219.861C127.836 220.342 127.114 220.583 126.176 220.583H119.678L119.45 222.217C118.918 226.397 117.778 229.373 116.03 231.147C114.308 232.92 111.926 233.807 108.886 233.807C107.164 233.807 105.58 233.439 104.136 232.705C102.692 231.945 101.628 231.033 100.944 229.969C100.666 229.538 100.526 229.019 100.526 228.411C100.526 227.803 100.666 227.271 100.944 226.815C101.248 226.359 101.616 226.131 102.046 226.131C102.35 226.131 102.642 226.232 102.92 226.435C103.224 226.637 103.604 227.03 104.06 227.613C105.276 229.209 106.784 230.007 108.582 230.007C110.026 230.007 111.23 229.424 112.192 228.259C113.18 227.068 113.814 225.206 114.092 222.673L114.32 220.583H112.496C111.914 220.583 111.407 220.418 110.976 220.089C110.571 219.759 110.368 219.291 110.368 218.683C110.368 217.897 110.571 217.302 110.976 216.897C111.382 216.466 111.977 216.251 112.762 216.251C113.472 216.251 114.168 216.238 114.852 216.213C115.156 213.426 115.486 210.044 115.84 206.067C113.104 206.32 111.179 206.763 110.064 207.397C108.95 208.03 108.392 208.967 108.392 210.209C108.392 211.07 108.646 211.893 109.152 212.679C109.304 212.907 109.38 213.135 109.38 213.363C109.38 213.819 109.127 214.224 108.62 214.579C108.114 214.908 107.544 215.073 106.91 215.073C106.226 215.073 105.644 214.87 105.162 214.465C104.858 214.211 104.567 213.692 104.288 212.907C104.01 212.121 103.87 211.247 103.87 210.285C103.87 207.143 105.479 204.863 108.696 203.445C111.939 202.026 116.664 201.317 122.87 201.317C127.177 201.317 130.977 201.545 134.27 202.001ZM134.419 213.287C133.355 213.287 132.557 213.046 132.025 212.565C131.493 212.058 131.227 211.361 131.227 210.475C131.227 209.588 131.569 208.853 132.253 208.271C132.963 207.663 133.837 207.359 134.875 207.359C135.813 207.359 136.573 207.587 137.155 208.043C137.738 208.499 138.029 209.145 138.029 209.981C138.029 210.994 137.7 211.805 137.041 212.413C136.383 212.995 135.509 213.287 134.419 213.287ZM134.115 233.693C132.469 233.693 131.265 233.11 130.505 231.945C129.771 230.779 129.403 229.234 129.403 227.309C129.403 226.169 129.543 224.712 129.821 222.939C130.125 221.14 130.505 219.468 130.961 217.923C131.189 217.112 131.493 216.555 131.873 216.251C132.253 215.947 132.861 215.795 133.697 215.795C134.989 215.795 135.635 216.225 135.635 217.087C135.635 217.72 135.395 219.189 134.913 221.495C134.305 224.281 134.001 226.169 134.001 227.157C134.001 227.917 134.103 228.499 134.305 228.905C134.508 229.31 134.85 229.513 135.331 229.513C135.787 229.513 136.357 229.196 137.041 228.563C137.725 227.929 138.637 226.929 139.777 225.561C140.081 225.206 140.423 225.029 140.803 225.029C141.133 225.029 141.386 225.181 141.563 225.485C141.766 225.789 141.867 226.207 141.867 226.739C141.867 227.752 141.627 228.537 141.145 229.095C138.637 232.16 136.294 233.693 134.115 233.693ZM145.063 219.405C145.012 220.671 144.987 221.659 144.987 222.369C144.987 224.193 145.075 225.624 145.253 226.663C145.455 227.676 145.772 228.411 146.203 228.867C146.659 229.297 147.279 229.513 148.065 229.513C148.47 229.513 148.951 229.386 149.509 229.133C150.066 228.879 150.573 228.55 151.029 228.145C151.307 227.891 151.586 227.765 151.865 227.765C152.169 227.765 152.409 227.942 152.587 228.297C152.789 228.626 152.891 229.031 152.891 229.513C152.891 229.994 152.789 230.463 152.587 230.919C152.409 231.375 152.131 231.755 151.751 232.059C150.433 233.148 148.939 233.693 147.267 233.693C144.86 233.693 143.099 232.692 141.985 230.691C140.87 228.664 140.313 226.029 140.313 222.787C140.313 221.672 140.351 220.545 140.427 219.405H138.945C138.185 219.405 137.665 219.265 137.387 218.987C137.133 218.708 137.007 218.265 137.007 217.657C137.007 216.238 137.577 215.529 138.717 215.529H140.883C141.313 212.742 141.972 210.196 142.859 207.891C143.745 205.585 144.809 203.749 146.051 202.381C147.317 201.013 148.673 200.329 150.117 200.329C151.181 200.329 152.017 200.797 152.625 201.735C153.233 202.672 153.537 203.85 153.537 205.269C153.537 209.195 151.89 212.615 148.597 215.529H152.853C153.258 215.529 153.549 215.617 153.727 215.795C153.904 215.972 153.993 216.301 153.993 216.783C153.993 218.531 152.561 219.405 149.699 219.405H145.063ZM149.091 203.977C148.711 203.977 148.28 204.458 147.799 205.421C147.343 206.358 146.899 207.675 146.469 209.373C146.063 211.045 145.721 212.907 145.443 214.959C146.937 213.667 148.052 212.223 148.787 210.627C149.547 209.005 149.927 207.536 149.927 206.219C149.927 204.724 149.648 203.977 149.091 203.977Z" fill="#E60023"/>
<path d="M92.2217 201.963C93.007 202.115 93.5897 202.381 93.9697 202.761C94.375 203.141 94.5777 203.584 94.5777 204.091C94.5777 204.927 94.337 205.535 93.8557 205.915C93.3997 206.295 92.665 206.447 91.6517 206.371C89.3717 206.193 87.5857 206.079 86.2937 206.029C85.027 205.953 83.355 205.902 81.2777 205.877C80.3403 210.538 79.479 215.225 78.6937 219.937C78.415 221.659 78.1237 223.661 77.8197 225.941C77.5157 228.195 77.313 230.019 77.2117 231.413C77.161 232.147 76.857 232.717 76.2997 233.123C75.7423 233.503 75.071 233.693 74.2857 233.693C73.4497 233.693 72.8037 233.49 72.3477 233.085C71.8917 232.679 71.6637 232.147 71.6637 231.489C71.6637 230.881 71.7523 229.88 71.9297 228.487C72.1323 227.068 72.3603 225.586 72.6137 224.041C72.8923 222.495 73.1077 221.153 73.2597 220.013C73.5383 218.087 73.855 216.175 74.2097 214.275C74.5643 212.375 74.919 210.576 75.2737 208.879C75.3497 208.499 75.4383 208.068 75.5397 207.587C75.641 207.08 75.755 206.523 75.8817 205.915C73.399 205.991 71.4483 206.193 70.0297 206.523C68.611 206.852 67.5977 207.321 66.9897 207.929C66.407 208.511 66.1157 209.271 66.1157 210.209C66.1157 211.07 66.369 211.893 66.8757 212.679C66.977 212.856 67.0277 213.046 67.0277 213.249C67.0277 213.73 66.7363 214.186 66.1537 214.617C65.5963 215.022 65.0137 215.225 64.4057 215.225C63.975 215.225 63.6203 215.098 63.3417 214.845C62.835 214.414 62.417 213.806 62.0877 213.021C61.7583 212.21 61.5937 211.298 61.5937 210.285C61.5937 208.131 62.2903 206.409 63.6837 205.117C65.1023 203.799 67.243 202.837 70.1057 202.229C72.9937 201.621 76.6923 201.317 81.2017 201.317C83.9883 201.317 86.205 201.367 87.8517 201.469C89.5237 201.57 90.9803 201.735 92.2217 201.963ZM91.5917 233.693C90.097 233.693 88.8177 233.325 87.7537 232.591C86.715 231.831 85.9297 230.843 85.3977 229.627C84.8657 228.411 84.5997 227.106 84.5997 225.713C84.5997 223.787 84.9544 222.077 85.6637 220.583C86.3984 219.063 87.3864 217.885 88.6277 217.049C89.869 216.187 91.2624 215.757 92.8077 215.757C94.3024 215.757 95.5817 216.137 96.6457 216.897C97.7097 217.631 98.5077 218.607 99.0397 219.823C99.5717 221.039 99.8377 222.343 99.8377 223.737C99.8377 225.662 99.4704 227.385 98.7357 228.905C98.001 230.399 97.0004 231.577 95.7337 232.439C94.4924 233.275 93.1117 233.693 91.5917 233.693ZM92.0097 229.589C92.871 229.589 93.593 229.12 94.1757 228.183C94.7837 227.245 95.0877 225.877 95.0877 224.079C95.0877 222.685 94.8344 221.634 94.3277 220.925C93.821 220.215 93.213 219.861 92.5037 219.861C91.5917 219.861 90.8317 220.329 90.2237 221.267C89.641 222.179 89.3497 223.547 89.3497 225.371C89.3497 226.815 89.603 227.879 90.1097 228.563C90.6164 229.247 91.2497 229.589 92.0097 229.589Z" fill="white" fill-opacity="0.85"/>
<path d="M78.3482 78.2933L56.5471 163.883H85.6152C81.7395 131.585 88.3067 125.125 92.0748 125.933C114.037 149.833 128.141 150.426 132.447 147.734C156.348 136.107 165.553 111.668 167.168 100.902C162.646 85.399 154.518 83.6764 151.019 84.753C138.745 91.2126 142.266 100.931 145.366 102.517L151.956 103.354L152.634 107.362C147.466 114.467 135.946 120.55 130.832 122.703C132.447 109.006 122.08 107.929 118.043 109.006L117.106 100.902C114.683 90.4343 105.931 87.1754 98.5344 87.1754V84.753H100.957V82.3307H104.994V79.9083H111.454V70.2189L114.683 67.7966H123.565V58.9146C123.565 52.4842 113.069 44.3804 111.454 43.573C109.839 42.7655 96.9195 33.8836 84.8078 39.5357C75.1184 44.0574 73.2343 58.107 73.5035 64.5666C70.9197 66.5045 65.9673 61.0677 63.8141 58.107L62.1992 78.2933H78.3482Z" fill="white" fill-opacity="0.85"/>
<path d="M71.8887 5.62305C71.8887 6.26901 69.7355 6.9688 68.6589 7.23795V8.85277L66.2364 12.89C64.8907 13.4283 62.0377 14.5049 61.3917 14.5049C60.7458 14.5049 59.5077 12.89 58.9694 12.0826H47.6651C43.0896 17.4656 32.904 29.7706 34.7459 30.6539C36.4905 31.4905 40.5278 29.8756 44.4353 37.1135L43.2241 67.7966L42.013 98.4796H55.7396L54.2544 163.912C49.6789 163.912 39.7203 164.72 37.9757 164.69C36.5315 164.666 33.6693 141.813 32.3236 129.97C28.4478 129.324 25.864 119.473 25.0565 114.629L23.4417 66.9891C4.70886 59.8836 3.79375 34.9604 5.6778 23.3869C45.2428 -6.48869 67.8514 0.778355 68.6589 0.778355C69.4663 0.778355 71.8887 4.8156 71.8887 5.62305Z" fill="#E60023"/>
</svg>
